<svg width="63" height="62" viewBox="0 0 63 62" fill="none" xmlns="http://www.w3.org/2000/svg">
  <g clip-path="url(#clip0)" fill="#fff">
    <path d="M62.73.27a.933.933 0 00-1.306 0l-3.409 3.355a4.493 4.493 0 00-2.011-.693l-20.26-1.907a4.495 4.495 0 00-3.585 1.267L11.372 22.75a.898.898 0 000 1.284.934.934 0 001.305 0L33.464 3.577a2.638 2.638 0 012.103-.744L55.828 4.74c.294.028.573.105.83.22L53.93 7.645a3.963 3.963 0 00-2.058-.57 3.95 3.95 0 00-2.788 1.137 3.84 3.84 0 000 5.487 3.949 3.949 0 002.788 1.136A3.95 3.95 0 0054.66 13.7a3.84 3.84 0 00.575-4.768l2.73-2.686c.116.253.194.528.222.817l1.938 19.94c.075.769-.2 1.523-.756 2.069L28.502 59.448c-1.012.996-2.695.995-3.706 0L2.597 37.602a2.572 2.572 0 010-3.648l7.077-6.964a.898.898 0 000-1.285.934.934 0 00-1.306 0l-7.076 6.964c-1.724 1.696-1.722 4.523 0 6.218L23.49 60.733c1.695 1.669 4.584 1.705 6.317 0l30.867-30.377a4.342 4.342 0 001.288-3.527l-1.938-19.94c-.07-.725-.32-1.4-.704-1.979l3.409-3.354a.899.899 0 000-1.285zm-9.375 12.145c-.809.795-2.157.795-2.965 0a2.042 2.042 0 010-2.918 2.137 2.137 0 012.16-.493l-1.33 1.31a.898.898 0 000 1.284c.356.35.949.35 1.305 0l1.329-1.308a2.04 2.04 0 01-.5 2.125z"/>
    <path d="M55.053 23.921L38.696 7.824c-1.722-1.695-4.597-1.693-6.317 0L7.134 32.668c-.852.839-1.278 1.974-1.278 3.109s.427 2.27 1.278 3.108L23.49 54.983c1.722 1.694 4.597 1.693 6.317 0l25.245-24.844c1.723-1.696 1.721-4.524 0-6.218zm-1.306 4.933L28.503 53.698c-1.013.996-2.696.995-3.707 0L8.439 37.6a2.572 2.572 0 010-3.648L33.684 9.109c1.012-.997 2.695-.995 3.707 0l16.356 16.097c1.007.99 1.004 2.66 0 3.648z"/>
    <path d="M35.916 35.755c-2.153-2.12-5.372-1.82-7.504.278l-.044.043c-2.088 2.055-2.414 5.202-.283 7.3 2.154 2.12 5.395 1.798 7.505-.278l.043-.043c2.089-2.055 2.415-5.202.283-7.3zm-2.262 5.437l-.044.043c-1.174 1.156-2.784 1.541-3.806.535-.979-.963-.696-2.611.544-3.832l.043-.042c1.175-1.156 2.785-1.542 3.807-.535.979.963.674 2.633-.544 3.831zM44.052 28.562c-.305-.3-.718-.45-1.131-.342l-23.623 3.596c-.261.043-.544.15-.762.364a1.15 1.15 0 000 1.67c.305.3.718.45 1.153.364l23.623-3.596c.261-.043.544-.15.762-.364.478-.471.456-1.22-.022-1.692zM34.502 19.036c-2.153-2.12-5.373-1.82-7.504.278l-.044.043c-2.088 2.055-2.414 5.202-.282 7.3 2.175 2.14 5.394 1.798 7.504-.278l.044-.043c2.088-2.055 2.436-5.18.282-7.3zm-2.262 5.438l-.044.042c-1.174 1.156-2.784 1.542-3.806.535-.979-.963-.696-2.611.544-3.831l.043-.043c1.175-1.156 2.785-1.541 3.807-.535.979.963.674 2.633-.544 3.832z"/>
  </g>
  <defs>
    <clipPath id="clip0">
      <path fill="#fff" d="M0 0h63v62H0z"/>
    </clipPath>
  </defs>
</svg>
