<svg width="66" height="66" viewBox="0 0 66 66" fill="none" xmlns="http://www.w3.org/2000/svg">
  <g clip-path="url(#clip0)">
    <path d="M40.269 29.175l8.593 6.117a1.1 1.1 0 001.276 0l8.593-6.117A6.798 6.798 0 0061.6 23.66V10.645a1.1 1.1 0 00-.66-1.01l-11-4.752a1.1 1.1 0 00-.871 0l-11 4.752a1.1 1.1 0 00-.66 1.01V23.66a6.799 6.799 0 002.86 5.515zM39.6 11.367l9.9-4.275 9.9 4.275V23.66a4.596 4.596 0 01-1.946 3.73L49.5 33.046l-7.954-5.663A4.592 4.592 0 0139.6 23.66V11.367z" fill="#fff"/>
    <path d="M46.525 25.3V12.1m0 0l-2.164 2.2m2.164-2.2l2.163 2.2M53.016 12.1v13.2m0 0l-2.163-2.2m2.163 2.2l2.164-2.2" stroke="#fff" stroke-width="2" stroke-linecap="round"/>
    <path d="M2.2 58.3h1.1v4.4A3.3 3.3 0 006.6 66h6.6a3.3 3.3 0 003.3-3.3v-4.4h26.4v4.4a3.3 3.3 0 003.3 3.3h6.6a3.3 3.3 0 003.3-3.3v-4.4h1.1a2.2 2.2 0 002.2-2.2V39.6a5.442 5.442 0 00-1.902-4.146l3.784-2.693a11.207 11.207 0 004.718-9.1V7.754a1.1 1.1 0 00-.66-1.01L49.94.09a1.1 1.1 0 00-.871 0L33.66 6.744a1.1 1.1 0 00-.66 1.01V12.1H16.357a5.5 5.5 0 00-5.185 3.672l-6.48 18.41A5.492 5.492 0 000 39.6v16.5a2.2 2.2 0 002.2 2.2zm12.1 4.4a1.1 1.1 0 01-1.1 1.1H6.6a1.1 1.1 0 01-1.1-1.1v-4.4h8.8v4.4zm-4.4-6.6H7.7v-2.2h2.2v2.2zm44 6.6a1.1 1.1 0 01-1.1 1.1h-6.6a1.1 1.1 0 01-1.1-1.1v-4.4h8.8v4.4zm-2.2-6.6h-2.2v-2.2h2.2v2.2zM35.2 8.477L49.5 2.3l14.3 6.177v15.18a9.001 9.001 0 01-3.794 7.309L49.5 38.448l-10.506-7.48a9.001 9.001 0 01-3.794-7.307V8.476zm16.5 32.225a1.1 1.1 0 011.1 1.1V44a1.1 1.1 0 01-1.1 1.1h-6.6A1.1 1.1 0 0144 44a3.3 3.3 0 013.3-3.3h4.4zM33 18.7v2.2h-7.7v-2.2H33zm0-2.2h-2.2v-2.2H33v2.2zm-19.753 0a3.3 3.3 0 013.11-2.2H28.6v2.2h-3.3a2.2 2.2 0 00-2.2 2.2v2.2a2.2 2.2 0 002.2 2.2H33v.56a11.207 11.207 0 004.718 9.1l1.882 1.34H7.053l6.194-17.6zM2.2 39.6a3.3 3.3 0 013.3-3.3h37.191l3.324 2.367a5.5 5.5 0 00-4.215 5.333 3.3 3.3 0 003.3 3.3h6.6A3.3 3.3 0 0055 44v-2.2a3.3 3.3 0 00-2.106-3.068l2.723-1.94a3.254 3.254 0 011.583 2.808v16.5h-3.3v-2.2a2.2 2.2 0 00-2.2-2.2h-2.2a2.2 2.2 0 00-2.2 2.2v2.2H12.1v-2.2a2.2 2.2 0 00-2.2-2.2H7.7a2.2 2.2 0 00-2.2 2.2v2.2H2.2V39.6z" fill="#fff"/>
    <path d="M19.8 16.5h-1.882a3.308 3.308 0 00-3.113 2.2l-4.13 11.735a1.1 1.1 0 102.076.73l4.13-11.73a1.1 1.1 0 011.037-.735H19.8a1.1 1.1 0 000-2.2zM7.7 47.3h6.6a3.3 3.3 0 003.3-3.3 5.506 5.506 0 00-5.5-5.5H7.7a3.3 3.3 0 00-3.3 3.3V44a3.3 3.3 0 003.3 3.3zm-1.1-5.5a1.1 1.1 0 011.1-1.1h4.4a3.3 3.3 0 013.3 3.3 1.1 1.1 0 01-1.1 1.1H7.7A1.1 1.1 0 016.6 44v-2.2zM22 53.9h15.4a2.2 2.2 0 002.2-2.2v-4.4a2.2 2.2 0 00-2.2-2.2H22a2.2 2.2 0 00-2.2 2.2v4.4a2.2 2.2 0 002.2 2.2zm0-6.6h15.4v4.4H22v-4.4z" fill="#fff"/>
  </g>
  <defs>
    <clipPath id="clip0">
      <path fill="#fff" d="M0 0h66v66H0z"/>
    </clipPath>
  </defs>
</svg>
